<svg xmlns="http://www.w3.org/2000/svg" width="188" height="56" viewBox="0 0 188 56" fill="none"><g clip-path="url(#clip0_330_236)"><path d="M70.3229 18.0804H76.3485V20.9648H66.7075V2.81406H70.3938V18.0804H70.3229Z" fill="white"></path><path d="M82.0907 5.76883V10.2713H88.2581V13.1558H82.0907V17.9397H89.0379V20.8945H78.4753V2.81406H89.0379V5.76883H82.0907Z" fill="white"></path><path d="M110.872 8.30151C110.447 7.52764 109.879 6.96482 109.17 6.54271C108.462 6.1206 107.611 5.9799 106.618 5.9799C105.555 5.9799 104.563 6.19095 103.712 6.68342C102.861 7.17588 102.223 7.8794 101.727 8.72362C101.231 9.63819 101.018 10.6935 101.018 11.8191C101.018 13.0151 101.231 14.0704 101.727 14.9849C102.223 15.8995 102.861 16.603 103.712 17.0251C104.563 17.5176 105.555 17.7286 106.689 17.7286C108.107 17.7286 109.241 17.3769 110.092 16.603C111.014 15.8995 111.581 14.8442 111.864 13.5075H105.626V10.7638H115.48V13.9296C115.267 15.196 114.7 16.392 113.92 17.4472C113.14 18.5025 112.077 19.3467 110.801 20.0503C109.525 20.6834 108.107 21.0352 106.548 21.0352C104.775 21.0352 103.216 20.6131 101.798 19.8392C100.38 19.0653 99.2459 17.9397 98.4661 16.5327C97.6863 15.1256 97.261 13.5779 97.261 11.7487C97.261 9.98995 97.6863 8.37186 98.4661 6.96482C99.2459 5.55779 100.38 4.43216 101.798 3.65829C103.216 2.88442 104.775 2.46231 106.548 2.46231C108.603 2.46231 110.376 2.95477 111.935 3.9397C113.424 4.92462 114.487 6.33166 115.054 8.1608H110.872V8.30151Z" fill="white"></path><path d="M127.389 20.8945L123.349 13.8593H121.647V20.8945H117.961V2.81406H124.837C126.255 2.81406 127.46 3.09546 128.453 3.58793C129.445 4.08039 130.154 4.71355 130.721 5.55778C131.217 6.402 131.43 7.31657 131.43 8.37184C131.43 9.56782 131.076 10.6231 130.367 11.608C129.658 12.593 128.665 13.2261 127.248 13.5779L131.643 20.8945H127.389ZM121.647 11.1859H124.695C125.688 11.1859 126.397 10.9749 126.893 10.4824C127.389 9.98994 127.602 9.35677 127.602 8.51255C127.602 7.66833 127.389 7.03516 126.893 6.61305C126.397 6.12059 125.688 5.90953 124.695 5.90953H121.647V11.1859Z" fill="white"></path><path d="M145.75 17.4472H138.519L137.314 20.8945H133.486L139.937 2.81406H144.19L150.712 20.9648H146.813L145.75 17.4472ZM144.757 14.5628L142.064 7.03516L139.441 14.6332H144.757V14.5628Z" fill="white"></path><path d="M168.647 20.8945H164.961L156.667 8.51255V20.8945H152.98V2.81406H156.667L164.961 15.2663V2.81406H168.647V20.8945Z" fill="white"></path><path d="M183.463 3.93968C184.952 4.71355 186.015 5.76883 186.866 7.10551C187.646 8.51255 188.071 10.0603 188.071 11.8894C188.071 13.7186 187.646 15.2663 186.866 16.6734C186.086 18.01 184.952 19.0653 183.463 19.8392C181.974 20.6131 180.344 20.9648 178.43 20.9648H172.05V2.81406H178.43C180.273 2.81406 181.974 3.23617 183.463 3.93968ZM182.683 16.3216C183.747 15.2663 184.243 13.8593 184.243 11.9598C184.243 10.0603 183.747 8.5829 182.683 7.52762C181.62 6.47235 180.131 5.90953 178.217 5.90953H175.665V17.8693H178.217C180.202 17.8693 181.691 17.3065 182.683 16.3216Z" fill="white"></path><path d="M85.9186 26.804V45.4472H83.4374V31.5879L77.1991 45.4472H75.4978L69.2595 31.5176V45.4472H66.7783V26.804H69.4012L76.3485 42.2111L83.2957 26.804H85.9186Z" fill="white"></path><path d="M89.8884 34.0503C90.5264 32.9246 91.377 32.01 92.4404 31.3769C93.5037 30.7437 94.7089 30.4623 96.0558 30.4623C97.3318 30.4623 98.466 30.7437 99.4585 31.3065C100.451 31.8693 101.16 32.5729 101.585 33.4171V30.7437H104.066V45.5176H101.585V42.7739C101.089 43.6181 100.38 44.3216 99.3876 44.8844C98.3952 45.4472 97.2609 45.7286 95.9849 45.7286C94.638 45.7286 93.5037 45.3769 92.4404 44.7437C91.377 44.1106 90.5264 43.196 89.8884 42C89.2504 40.804 88.9668 39.5377 88.9668 37.99C88.9668 36.5126 89.2504 35.1759 89.8884 34.0503ZM100.876 35.1759C100.451 34.3317 99.8129 33.6985 99.0332 33.2764C98.2534 32.8543 97.4027 32.6432 96.4811 32.6432C95.5596 32.6432 94.7089 32.8543 93.9291 33.2764C93.1493 33.6985 92.5822 34.3317 92.0859 35.1759C91.6606 36.0201 91.377 36.9347 91.377 38.0603C91.377 39.1859 91.5897 40.1709 92.0859 41.0151C92.5822 41.8593 93.1493 42.4925 93.9291 42.9146C94.7089 43.3367 95.5596 43.5477 96.4811 43.5477C97.4027 43.5477 98.2534 43.3367 99.0332 42.9146C99.8129 42.4925 100.38 41.8593 100.876 41.0151C101.302 40.1709 101.585 39.1859 101.585 38.1307C101.585 37.0754 101.302 35.9497 100.876 35.1759Z" fill="white"></path><path d="M112.29 31.1658C113.069 30.6734 114.062 30.4623 115.196 30.4623V32.995H114.558C111.793 32.995 110.376 34.4724 110.376 37.4271V45.4472H107.895V30.6734H110.376V33.0653C110.872 32.2915 111.51 31.5879 112.29 31.1658Z" fill="white"></path><path d="M117.89 34.0503C118.528 32.9246 119.379 32.01 120.442 31.3769C121.505 30.7437 122.781 30.4623 124.199 30.4623C126.042 30.4623 127.531 30.8844 128.736 31.799C129.941 32.6432 130.721 33.9095 131.075 35.4573H128.452C128.169 34.5427 127.673 33.8392 126.964 33.3467C126.255 32.8543 125.333 32.5729 124.27 32.5729C122.852 32.5729 121.718 33.0653 120.867 33.9799C120.017 34.9648 119.591 36.3015 119.591 38.0603C119.591 39.8191 120.017 41.2261 120.867 42.2111C121.718 43.196 122.852 43.6884 124.27 43.6884C125.333 43.6884 126.255 43.407 126.964 42.9146C127.673 42.4221 128.169 41.7186 128.452 40.7337H131.075C130.65 42.2111 129.87 43.4774 128.665 44.3216C127.46 45.2362 125.971 45.6583 124.199 45.6583C122.781 45.6583 121.505 45.3769 120.442 44.7437C119.379 44.1106 118.528 43.196 117.89 42.0704C117.252 40.9447 116.968 39.608 116.968 38.0603C116.968 36.5126 117.252 35.1759 117.89 34.0503Z" fill="white"></path><path d="M144.545 31.1658C145.466 31.6583 146.175 32.3618 146.671 33.2764C147.168 34.2613 147.451 35.3869 147.451 36.7236V45.4472H145.041V37.0754C145.041 35.598 144.686 34.4724 143.907 33.6985C143.198 32.9246 142.134 32.5025 140.858 32.5025C139.582 32.5025 138.519 32.9246 137.739 33.6985C136.959 34.4724 136.605 35.6683 136.605 37.2161V45.3769H134.124V25.5377H136.605V32.7839C137.101 32.0101 137.739 31.4472 138.59 31.0251C139.441 30.603 140.433 30.392 141.496 30.392C142.631 30.4623 143.623 30.6734 144.545 31.1658Z" fill="white"></path><path d="M164.748 38.9749H152.839C152.91 40.4523 153.406 41.5779 154.327 42.3518C155.249 43.196 156.312 43.5477 157.659 43.5477C158.723 43.5477 159.644 43.2663 160.353 42.7739C161.062 42.2814 161.558 41.6482 161.842 40.804H164.465C164.039 42.2111 163.259 43.407 162.054 44.2513C160.849 45.0955 159.361 45.5879 157.588 45.5879C156.17 45.5879 154.894 45.3065 153.831 44.6734C152.768 44.0402 151.846 43.1256 151.208 42C150.57 40.8744 150.287 39.4673 150.287 37.99C150.287 36.5126 150.57 35.1055 151.208 33.9799C151.846 32.8543 152.697 31.9397 153.831 31.3065C154.965 30.6734 156.241 30.392 157.659 30.392C159.077 30.392 160.282 30.6734 161.416 31.3065C162.48 31.9397 163.33 32.7839 163.897 33.8392C164.465 34.8945 164.748 36.0905 164.748 37.4271C164.819 37.99 164.748 38.4824 164.748 38.9749ZM161.629 34.6131C161.204 33.9096 160.637 33.4171 159.928 33.0653C159.219 32.7136 158.439 32.5729 157.588 32.5729C156.312 32.5729 155.249 32.995 154.398 33.7689C153.548 34.5427 153.051 35.6683 152.91 37.0754H162.267C162.267 36.0905 162.054 35.2462 161.629 34.6131Z" fill="white"></path><path d="M50.3361 18.0177L43.4236 6.10396C41.2175 2.35333 37.173 0 32.8343 0H19.1564C14.8177 0 10.7732 2.35333 8.56706 6.10396L1.65458 18.0177C-0.551528 21.7683 -0.551528 26.475 1.65458 30.2256L8.56706 42.1394C10.7732 45.89 14.8177 48.2433 19.1564 48.2433H32.9078C37.2465 48.2433 41.291 45.89 43.4972 42.1394L50.4096 30.2256C52.5422 26.475 52.5422 21.8419 50.3361 18.0177ZM25.9953 34.1969L20.5536 25.8131C19.8182 24.7835 19.8182 23.3863 20.5536 22.3567L25.9953 13.9729L32.5401 24.0481L25.9953 34.1969Z" fill="url(#paint0_linear_330_236)"></path><path d="M25.9954 34.1969L29.3046 39.7125C32.9079 45.6694 41.5853 45.5959 45.0415 39.5654L50.2626 30.5198C52.5423 26.5486 52.5423 21.6213 50.2626 17.65L43.8649 6.6923C41.5117 2.64751 35.7758 2.13272 32.7608 5.73626L25.9219 13.9729L30.4812 20.9594C31.6578 22.8715 31.6578 25.2983 30.4812 27.2104L25.9954 34.1969Z" fill="url(#paint1_linear_330_236)"></path><path d="M20.0389 24.0481V37.1385C20.0389 47.8021 11.0674 56.4065 0.0368652 56.4065V43.3161C0.0368652 32.726 8.93484 24.0481 20.0389 24.0481Z" fill="url(#paint2_linear_330_236)"></path></g><defs><linearGradient id="paint0_linear_330_236" x1="2.36267" y1="15.5211" x2="49.6589" y2="32.7588" gradientUnits="userSpaceOnUse"><stop stop-color="white"></stop><stop offset="1" stop-color="#F1F8E2"></stop></linearGradient><linearGradient id="paint1_linear_330_236" x1="26.0097" y1="23.7518" x2="52.0721" y2="23.7518" gradientUnits="userSpaceOnUse"><stop stop-color="#C9E0B4"></stop><stop offset="1" stop-color="#EAF2DB"></stop></linearGradient><linearGradient id="paint2_linear_330_236" x1="2.31813" y1="33.7933" x2="17.7454" y2="46.7553" gradientUnits="userSpaceOnUse"><stop stop-color="#C9E0B4"></stop><stop offset="1" stop-color="#DAE9C8"></stop></linearGradient><clipPath id="clip0_330_236"><rect width="188" height="56" fill="white"></rect></clipPath></defs></svg>